<svg width="28" height="28" viewBox="0 0 28 28" fill="none" xmlns="http://www.w3.org/2000/svg">
<path d="M12.625 13.625V4.875C12.625 4.64294 12.7172 4.42038 12.8813 4.25628C13.0454 4.09219 13.2679 4 13.5 4C13.7321 4 13.9546 4.09219 14.1187 4.25628C14.2828 4.42038 14.375 4.64294 14.375 4.875V13.625C14.375 13.8571 14.2828 14.0796 14.1187 14.2437C13.9546 14.4078 13.7321 14.5 13.5 14.5C13.2679 14.5 13.0454 14.4078 12.8813 14.2437C12.7172 14.0796 12.625 13.8571 12.625 13.625ZM19.228 5.01719C19.0336 4.89436 18.7988 4.85295 18.5741 4.90191C18.3495 4.95087 18.1532 5.08626 18.0276 5.27882C17.902 5.47138 17.8572 5.70563 17.903 5.93093C17.9487 6.15623 18.0813 6.35448 18.272 6.48281C20.7997 8.13109 22.25 10.7342 22.25 13.625C22.25 15.9456 21.3281 18.1712 19.6872 19.8122C18.0462 21.4531 15.8206 22.375 13.5 22.375C11.1794 22.375 8.95376 21.4531 7.31282 19.8122C5.67187 18.1712 4.75 15.9456 4.75 13.625C4.75 10.7342 6.20031 8.13109 8.72797 6.48281C8.91871 6.35448 9.05128 6.15623 9.09702 5.93093C9.14276 5.70563 9.098 5.47138 8.9724 5.27882C8.84681 5.08626 8.65048 4.95087 8.42586 4.90191C8.20123 4.85295 7.96637 4.89436 7.77203 5.01719C4.73906 6.99469 3 10.1316 3 13.625C3 16.4098 4.10625 19.0805 6.07538 21.0496C8.04451 23.0188 10.7152 24.125 13.5 24.125C16.2848 24.125 18.9555 23.0188 20.9246 21.0496C22.8938 19.0805 24 16.4098 24 13.625C24 10.1316 22.2609 6.99469 19.228 5.01719Z" fill="#DA342E"/>
</svg>
