<svg width="24" height="24" viewBox="0 0 24 24" fill="none" xmlns="http://www.w3.org/2000/svg">
<path d="M20.5153 9.72844L13.0153 2.65219C13.0116 2.64899 13.0082 2.64554 13.005 2.64188C12.7289 2.39075 12.369 2.25159 11.9958 2.25159C11.6225 2.25159 11.2627 2.39075 10.9866 2.64188L10.9763 2.65219L3.48469 9.72844C3.33187 9.86896 3.20989 10.0397 3.12646 10.2298C3.04303 10.4199 2.99997 10.6252 3 10.8328V19.5C3 19.8978 3.15804 20.2794 3.43934 20.5607C3.72064 20.842 4.10218 21 4.5 21H9C9.39782 21 9.77936 20.842 10.0607 20.5607C10.342 20.2794 10.5 19.8978 10.5 19.5V15H13.5V19.5C13.5 19.8978 13.658 20.2794 13.9393 20.5607C14.2206 20.842 14.6022 21 15 21H19.5C19.8978 21 20.2794 20.842 20.5607 20.5607C20.842 20.2794 21 19.8978 21 19.5V10.8328C21 10.6252 20.957 10.4199 20.8735 10.2298C20.7901 10.0397 20.6681 9.86896 20.5153 9.72844ZM19.5 19.5H15V15C15 14.6022 14.842 14.2206 14.5607 13.9393C14.2794 13.658 13.8978 13.5 13.5 13.5H10.5C10.1022 13.5 9.72064 13.658 9.43934 13.9393C9.15804 14.2206 9 14.6022 9 15V19.5H4.5V10.8328L4.51031 10.8234L12 3.75L19.4906 10.8216L19.5009 10.8309L19.5 19.5Z" fill="#151E17"/>
</svg>
