<svg width="24" height="24" viewBox="0 0 24 24" fill="none" xmlns="http://www.w3.org/2000/svg">
<path d="M20.1159 19.6875C18.8306 17.4316 16.8235 15.6738 14.4178 14.6972C15.6141 13.7999 16.4978 12.549 16.9437 11.1216C17.3896 9.69424 17.3751 8.16274 16.9022 6.74407C16.4293 5.3254 15.522 4.09148 14.3089 3.21709C13.0957 2.34271 11.6382 1.87219 10.1428 1.87219C8.64739 1.87219 7.18988 2.34271 5.97674 3.21709C4.7636 4.09148 3.85633 5.3254 3.38343 6.74407C2.91054 8.16274 2.89601 9.69424 3.34189 11.1216C3.78778 12.549 4.67147 13.7999 5.8678 14.6972C3.46211 15.6738 1.45503 17.4316 0.169678 19.6875C0.0900326 19.8156 0.0369494 19.9583 0.0135841 20.1073C-0.00978127 20.2563 -0.00295191 20.4085 0.0336663 20.5548C0.0702845 20.7011 0.135944 20.8385 0.226741 20.9589C0.317538 21.0794 0.43162 21.1803 0.562203 21.2557C0.692787 21.3312 0.837207 21.3796 0.986877 21.3981C1.13655 21.4166 1.28841 21.4049 1.43345 21.3635C1.57848 21.3222 1.71372 21.2521 1.83112 21.1574C1.94853 21.0628 2.0457 20.9455 2.11687 20.8125C3.81562 17.8763 6.81562 16.125 10.1428 16.125C13.47 16.125 16.47 17.8772 18.1687 20.8125C18.323 21.0605 18.5676 21.2388 18.8509 21.3097C19.1342 21.3806 19.434 21.3386 19.6869 21.1925C19.9397 21.0464 20.1259 20.8077 20.206 20.5268C20.286 20.246 20.2537 19.945 20.1159 19.6875ZM5.2678 9C5.2678 8.03582 5.55372 7.09329 6.08939 6.2916C6.62506 5.48991 7.38643 4.86507 8.27722 4.49609C9.16801 4.12712 10.1482 4.03057 11.0939 4.21868C12.0395 4.40678 12.9082 4.87108 13.5899 5.55286C14.2717 6.23464 14.736 7.10328 14.9241 8.04894C15.1122 8.9946 15.0157 9.9748 14.6467 10.8656C14.2777 11.7564 13.6529 12.5177 12.8512 13.0534C12.0495 13.5891 11.107 13.875 10.1428 13.875C8.85033 13.8735 7.61122 13.3594 6.6973 12.4455C5.78338 11.5316 5.26929 10.2925 5.2678 9Z" fill="#006D3F"/>
</svg>
