<svg width="24" height="24" viewBox="0 0 24 24" fill="none" xmlns="http://www.w3.org/2000/svg">
<path d="M3 5V4.5C2.86739 4.5 2.74021 4.55268 2.64645 4.64645C2.55268 4.74021 2.5 4.86739 2.5 5H3ZM21 5H21.5C21.5 4.86739 21.4473 4.74021 21.3536 4.64645C21.2598 4.55268 21.1326 4.5 21 4.5V5ZM3 5.5H21V4.5H3V5.5ZM20.5 5V17H21.5V5H20.5ZM19 18.5H5V19.5H19V18.5ZM3.5 17V5H2.5V17H3.5ZM5 18.5C4.60218 18.5 4.22064 18.342 3.93934 18.0607C3.65804 17.7794 3.5 17.3978 3.5 17H2.5C2.5 17.663 2.76339 18.2989 3.23223 18.7678C3.70107 19.2366 4.33696 19.5 5 19.5V18.5ZM20.5 17C20.5 17.3978 20.342 17.7794 20.0607 18.0607C19.7794 18.342 19.3978 18.5 19 18.5V19.5C19.663 19.5 20.2989 19.2366 20.7678 18.7678C21.2366 18.2989 21.5 17.663 21.5 17H20.5Z" fill="#006D3F"/>
<path d="M3 4.5V5H2.5M3 4.5C2.86739 4.5 2.74021 4.55268 2.64645 4.64645C2.55268 4.74021 2.5 4.86739 2.5 5M3 4.5H21M3 4.5V5.5H21V4.5M2.5 5H3.5V17M2.5 5V17M21.5 5H21V4.5M21.5 5C21.5 4.86739 21.4473 4.74021 21.3536 4.64645C21.2598 4.55268 21.1326 4.5 21 4.5M21.5 5V17M21.5 5H20.5V17M20.5 17H21.5M20.5 17C20.5 17.3978 20.342 17.7794 20.0607 18.0607C19.7794 18.342 19.3978 18.5 19 18.5M21.5 17C21.5 17.663 21.2366 18.2989 20.7678 18.7678C20.2989 19.2366 19.663 19.5 19 19.5M19 18.5H5M19 18.5V19.5M5 18.5V19.5M5 18.5C4.60218 18.5 4.22064 18.342 3.93934 18.0607C3.65804 17.7794 3.5 17.3978 3.5 17M5 19.5H19M5 19.5C4.33696 19.5 3.70107 19.2366 3.23223 18.7678C2.76339 18.2989 2.5 17.663 2.5 17M3.5 17H2.5" stroke="#006D3F" stroke-width="0.5"/>
<path d="M3 5L12 14L21 5" stroke="#006D3F" stroke-width="1.5" stroke-linecap="round" stroke-linejoin="round"/>
</svg>
