<svg width="24" height="20" viewBox="0 0 24 20" fill="none" xmlns="http://www.w3.org/2000/svg">
<path d="M24 9.93862C24 10.1418 23.9193 10.3366 23.7757 10.4803C23.632 10.6239 23.4372 10.7046 23.234 10.7046H2.61515L10.4983 18.5891C10.5736 18.6592 10.634 18.7438 10.6758 18.8377C10.7177 18.9317 10.7402 19.0331 10.742 19.136C10.7438 19.2388 10.7249 19.341 10.6864 19.4364C10.6479 19.5317 10.5905 19.6184 10.5178 19.6911C10.4451 19.7638 10.3584 19.8212 10.263 19.8597C10.1677 19.8982 10.0655 19.9172 9.96265 19.9153C9.8598 19.9135 9.75837 19.891 9.66441 19.8492C9.57046 19.8073 9.48589 19.7469 9.41577 19.6717L0.224013 10.4799C0.0805702 10.3363 0 10.1416 0 9.93862C0 9.73564 0.0805702 9.54095 0.224013 9.39733L9.41577 0.20558C9.56097 0.0702776 9.75302 -0.00338192 9.95146 0.000119337C10.1499 0.00362059 10.3392 0.0840094 10.4796 0.22435C10.6199 0.364691 10.7003 0.554026 10.7038 0.752467C10.7073 0.950908 10.6337 1.14296 10.4983 1.28816L2.61515 9.17265H23.234C23.4372 9.17265 23.632 9.25335 23.7757 9.397C23.9193 9.54065 24 9.73547 24 9.93862Z" fill="black"/>
</svg>
