<svg width="14" height="14" viewBox="0 0 14 14" fill="none" xmlns="http://www.w3.org/2000/svg">
<path d="M12.2406 7.14062C12.2406 7.25417 12.1955 7.36307 12.1152 7.44336C12.0349 7.52364 11.926 7.56875 11.8125 7.56875H7.42812V11.9531C7.42812 12.0667 7.38302 12.1756 7.30273 12.2559C7.22244 12.3361 7.11355 12.3813 7 12.3813C6.88645 12.3813 6.77756 12.3361 6.69727 12.2559C6.61698 12.1756 6.57188 12.0667 6.57188 11.9531V7.56875H2.1875C2.07395 7.56875 1.96506 7.52364 1.88477 7.44335M12.2406 7.14062L1.88477 7.44335M12.2406 7.14062C12.2406 7.02708 12.1955 6.91818 12.1152 6.8379C12.0349 6.75761 11.926 6.7125 11.8125 6.7125H7.42812M12.2406 7.14062L7.42812 6.7125M1.88477 7.44335C1.80448 7.36307 1.75937 7.25417 1.75937 7.14062C1.75937 7.02708 1.80448 6.91818 1.88477 6.83789C1.96506 6.75761 2.07395 6.7125 2.1875 6.7125H6.57188V2.32812C6.57188 2.21458 6.61698 2.10568 6.69727 2.02539C6.77756 1.94511 6.88645 1.9 7 1.9C7.11355 1.9 7.22244 1.94511 7.30273 2.02539M1.88477 7.44335L7.30273 2.02539M7.30273 2.02539C7.38302 2.10568 7.42812 2.21458 7.42812 2.32812V6.7125M7.30273 2.02539L7.42812 6.7125" fill="#004E2C" stroke="#004E2C" stroke-width="0.2"/>
</svg>
