<svg width="28" height="28" viewBox="0 0 28 28" fill="none" xmlns="http://www.w3.org/2000/svg">
<path d="M24.6191 6.75666L21.1191 3.25666C21.0378 3.1753 20.9413 3.11076 20.8351 3.06673C20.7288 3.0227 20.615 3.00003 20.5 3.00003C20.385 3.00003 20.2711 3.0227 20.1649 3.06673C20.0587 3.11076 19.9622 3.1753 19.8809 3.25666L9.38094 13.7567C9.29971 13.838 9.23529 13.9345 9.19138 14.0407C9.14747 14.1469 9.12491 14.2608 9.125 14.3757V17.8757C9.125 18.1078 9.21719 18.3303 9.38128 18.4944C9.54538 18.6585 9.76794 18.7507 10 18.7507H13.5C13.6149 18.7508 13.7288 18.7283 13.835 18.6843C13.9412 18.6404 14.0377 18.576 14.1191 18.4948L24.6191 7.99478C24.7004 7.91352 24.765 7.81701 24.809 7.71079C24.853 7.60457 24.8757 7.49071 24.8757 7.37572C24.8757 7.26073 24.853 7.14687 24.809 7.04065C24.765 6.93442 24.7004 6.83792 24.6191 6.75666ZM13.138 17.0007H10.875V14.7377L17.875 7.73775L20.138 10.0007L13.138 17.0007ZM21.375 8.76369L19.112 6.50072L20.5 5.11275L22.763 7.37572L21.375 8.76369ZM24 13.5007V23.1257C24 23.5898 23.8156 24.035 23.4874 24.3632C23.1592 24.6913 22.7141 24.8757 22.25 24.8757H4.75C4.28587 24.8757 3.84075 24.6913 3.51256 24.3632C3.18437 24.035 3 23.5898 3 23.1257V5.62572C3 5.16159 3.18437 4.71647 3.51256 4.38828C3.84075 4.06009 4.28587 3.87572 4.75 3.87572H14.375C14.6071 3.87572 14.8296 3.96791 14.9937 4.132C15.1578 4.29609 15.25 4.51865 15.25 4.75072C15.25 4.98278 15.1578 5.20534 14.9937 5.36944C14.8296 5.53353 14.6071 5.62572 14.375 5.62572H4.75V23.1257H22.25V13.5007C22.25 13.2687 22.3422 13.0461 22.5063 12.882C22.6704 12.7179 22.8929 12.6257 23.125 12.6257C23.3571 12.6257 23.5796 12.7179 23.7437 12.882C23.9078 13.0461 24 13.2687 24 13.5007Z" fill="#37463B"/>
</svg>
