<svg width="24" height="24" viewBox="0 0 24 24" fill="none" xmlns="http://www.w3.org/2000/svg">
<path d="M17.25 3.1875H6.75C6.4019 3.1875 6.06806 3.32578 5.82192 3.57192C5.57578 3.81806 5.4375 4.1519 5.4375 4.5V21C5.43747 21.1004 5.46432 21.199 5.51527 21.2856C5.56622 21.3721 5.63941 21.4434 5.72724 21.4921C5.81506 21.5408 5.91433 21.5651 6.01472 21.5625C6.11511 21.5599 6.21296 21.5304 6.29813 21.4772L11.9991 17.9147L17.7019 21.4772C17.787 21.5304 17.8849 21.5599 17.9853 21.5625C18.0857 21.5651 18.1849 21.5408 18.2728 21.4921C18.3606 21.4434 18.4338 21.3721 18.4847 21.2856C18.5357 21.199 18.5625 21.1004 18.5625 21V4.5C18.5625 4.1519 18.4242 3.81806 18.1781 3.57192C17.9319 3.32578 17.5981 3.1875 17.25 3.1875ZM17.4375 19.9847L12.2972 16.7728C12.2078 16.7169 12.1045 16.6873 11.9991 16.6873C11.8936 16.6873 11.7903 16.7169 11.7009 16.7728L6.5625 19.9847V4.5C6.5625 4.45027 6.58225 4.40258 6.61742 4.36742C6.65258 4.33225 6.70027 4.3125 6.75 4.3125H17.25C17.2997 4.3125 17.3474 4.33225 17.3826 4.36742C17.4177 4.40258 17.4375 4.45027 17.4375 4.5V19.9847Z" fill="#004E2C"/>
</svg>
