<svg width="32" height="32" viewBox="0 0 32 32" fill="none" xmlns="http://www.w3.org/2000/svg">
<path d="M29.0001 15.9863C29.001 16.3426 28.9067 16.6927 28.7269 17.0004C28.5472 17.3081 28.2885 17.5621 27.9776 17.7363L6.98883 29.7375C6.68727 29.9085 6.34674 29.9989 6.00008 30C5.68039 29.9994 5.36551 29.9221 5.08184 29.7747C4.79817 29.6272 4.55398 29.414 4.36973 29.1527C4.18548 28.8914 4.06654 28.5898 4.02288 28.2731C3.97923 27.9564 4.01213 27.6339 4.11883 27.3325L7.53758 17.3388C7.57127 17.2399 7.63507 17.1541 7.72004 17.0933C7.80501 17.0325 7.90687 16.9999 8.01133 17H17.0001C17.1372 17.0003 17.2729 16.9724 17.3987 16.9181C17.5246 16.8637 17.6379 16.7841 17.7317 16.6841C17.8255 16.5841 17.8977 16.4659 17.9439 16.3368C17.99 16.2078 18.0092 16.0706 18.0001 15.9338C17.9774 15.6766 17.8584 15.4375 17.667 15.2644C17.4755 15.0912 17.2257 14.9968 16.9676 15H8.02008C7.91578 15.0002 7.81403 14.9678 7.72908 14.9073C7.64413 14.8467 7.58023 14.7612 7.54633 14.6625L4.11633 4.66253C3.98276 4.27934 3.96891 3.86459 4.07662 3.47334C4.18433 3.0821 4.40851 2.73288 4.71939 2.47205C5.03026 2.21123 5.41313 2.05114 5.81713 2.01304C6.22114 1.97495 6.62718 2.06066 6.98133 2.25878L27.9813 14.245C28.2902 14.4189 28.5473 14.6718 28.7263 14.9778C28.9053 15.2838 28.9998 15.6318 29.0001 15.9863Z" fill="#37463B"/>
</svg>
