<svg width="24" height="24" viewBox="0 0 24 24" fill="none" xmlns="http://www.w3.org/2000/svg">
<path d="M20.7806 12.031L14.0306 18.781C13.8899 18.9217 13.699 19.0008 13.5 19.0008C13.301 19.0008 13.1101 18.9217 12.9694 18.781C12.8286 18.6403 12.7496 18.4494 12.7496 18.2504C12.7496 18.0513 12.8286 17.8605 12.9694 17.7197L18.4397 12.2504H3.75C3.55109 12.2504 3.36032 12.1713 3.21967 12.0307C3.07902 11.89 3 11.6993 3 11.5004C3 11.3015 3.07902 11.1107 3.21967 10.97C3.36032 10.8294 3.55109 10.7504 3.75 10.7504H18.4397L12.9694 5.28099C12.8286 5.14026 12.7496 4.94939 12.7496 4.75036C12.7496 4.55134 12.8286 4.36047 12.9694 4.21974C13.1101 4.07901 13.301 3.99995 13.5 3.99995C13.699 3.99995 13.8899 4.07901 14.0306 4.21974L20.7806 10.9697C20.8504 11.0394 20.9057 11.1221 20.9434 11.2132C20.9812 11.3042 21.0006 11.4018 21.0006 11.5004C21.0006 11.5989 20.9812 11.6965 20.9434 11.7876C20.9057 11.8786 20.8504 11.9613 20.7806 12.031Z" fill="#DA342E"/>
</svg>
