<svg width="28" height="28" viewBox="0 0 28 28" fill="none" xmlns="http://www.w3.org/2000/svg">
<path d="M22.4567 5.35344C21.41 4.29619 20.165 3.4558 18.7931 2.88037C17.4211 2.30493 15.9491 2.00577 14.4614 2H14.375C11.3582 2 8.46489 3.19843 6.33166 5.33166C4.19843 7.46489 3 10.3582 3 13.375V19.5C3 20.1962 3.27656 20.8639 3.76884 21.3562C4.26113 21.8484 4.92881 22.125 5.625 22.125H7.375C8.07119 22.125 8.73887 21.8484 9.23116 21.3562C9.72344 20.8639 10 20.1962 10 19.5V15.125C10 14.4288 9.72344 13.7611 9.23116 13.2688C8.73887 12.7766 8.07119 12.5 7.375 12.5H4.78938C4.95812 10.6756 5.64341 8.937 6.76493 7.48811C7.88645 6.03923 9.39773 4.94003 11.1216 4.31937C12.8455 3.6987 14.7107 3.58228 16.4984 3.98374C18.2861 4.38521 19.9223 5.28792 21.2153 6.58609C22.7957 8.17455 23.7677 10.2677 23.9617 12.5H21.375C20.6788 12.5 20.0111 12.7766 19.5188 13.2688C19.0266 13.7611 18.75 14.4288 18.75 15.125V19.5C18.75 20.1962 19.0266 20.8639 19.5188 21.3562C20.0111 21.8484 20.6788 22.125 21.375 22.125H24C24 22.8212 23.7234 23.4889 23.2312 23.9812C22.7389 24.4734 22.0712 24.75 21.375 24.75H15.25C15.0179 24.75 14.7954 24.8422 14.6313 25.0063C14.4672 25.1704 14.375 25.3929 14.375 25.625C14.375 25.8571 14.4672 26.0796 14.6313 26.2437C14.7954 26.4078 15.0179 26.5 15.25 26.5H21.375C22.5353 26.5 23.6481 26.0391 24.4686 25.2186C25.2891 24.3981 25.75 23.2853 25.75 22.125V13.375C25.7557 11.887 25.4677 10.4126 24.9026 9.03608C24.3375 7.6596 23.5063 6.40815 22.4567 5.35344ZM7.375 14.25C7.60706 14.25 7.82962 14.3422 7.99372 14.5063C8.15781 14.6704 8.25 14.8929 8.25 15.125V19.5C8.25 19.7321 8.15781 19.9546 7.99372 20.1187C7.82962 20.2828 7.60706 20.375 7.375 20.375H5.625C5.39294 20.375 5.17038 20.2828 5.00628 20.1187C4.84219 19.9546 4.75 19.7321 4.75 19.5V14.25H7.375ZM21.375 20.375C21.1429 20.375 20.9204 20.2828 20.7563 20.1187C20.5922 19.9546 20.5 19.7321 20.5 19.5V15.125C20.5 14.8929 20.5922 14.6704 20.7563 14.5063C20.9204 14.3422 21.1429 14.25 21.375 14.25H24V20.375H21.375Z" fill="#37463B"/>
</svg>
