<svg width="28" height="28" viewBox="0 0 28 28" fill="none" xmlns="http://www.w3.org/2000/svg">
<path d="M3.49996 5.83333V5.25C3.34525 5.25 3.19688 5.31146 3.08748 5.42085C2.97808 5.53025 2.91663 5.67862 2.91663 5.83333H3.49996ZM24.5 5.83333H25.0833C25.0833 5.67862 25.0218 5.53025 24.9124 5.42085C24.803 5.31146 24.6547 5.25 24.5 5.25V5.83333ZM3.49996 6.41667H24.5V5.25H3.49996V6.41667ZM23.9166 5.83333V19.8333H25.0833V5.83333H23.9166ZM22.1666 21.5833H5.83329V22.75H22.1666V21.5833ZM4.08329 19.8333V5.83333H2.91663V19.8333H4.08329ZM5.83329 21.5833C5.36916 21.5833 4.92404 21.399 4.59586 21.0708C4.26767 20.7426 4.08329 20.2975 4.08329 19.8333H2.91663C2.91663 20.6069 3.22392 21.3487 3.7709 21.8957C4.31788 22.4427 5.05974 22.75 5.83329 22.75V21.5833ZM23.9166 19.8333C23.9166 20.2975 23.7323 20.7426 23.4041 21.0708C23.0759 21.399 22.6308 21.5833 22.1666 21.5833V22.75C22.9402 22.75 23.682 22.4427 24.229 21.8957C24.776 21.3487 25.0833 20.6069 25.0833 19.8333H23.9166Z" fill="#37463B"/>
<path d="M3.49996 5.25V5.83333H2.91663M3.49996 5.25C3.34525 5.25 3.19688 5.31146 3.08748 5.42085C2.97808 5.53025 2.91663 5.67862 2.91663 5.83333M3.49996 5.25H24.5M3.49996 5.25V6.41667H24.5V5.25M2.91663 5.83333H4.08329V19.8333M2.91663 5.83333V19.8333M25.0833 5.83333H24.5V5.25M25.0833 5.83333C25.0833 5.67862 25.0218 5.53025 24.9124 5.42085C24.803 5.31146 24.6547 5.25 24.5 5.25M25.0833 5.83333V19.8333M25.0833 5.83333H23.9166V19.8333M23.9166 19.8333H25.0833M23.9166 19.8333C23.9166 20.2975 23.7323 20.7426 23.4041 21.0708C23.0759 21.399 22.6308 21.5833 22.1666 21.5833M25.0833 19.8333C25.0833 20.6069 24.776 21.3487 24.229 21.8957C23.682 22.4427 22.9402 22.75 22.1666 22.75M22.1666 21.5833H5.83329M22.1666 21.5833V22.75M5.83329 21.5833V22.75M5.83329 21.5833C5.36916 21.5833 4.92404 21.399 4.59586 21.0708C4.26767 20.7426 4.08329 20.2975 4.08329 19.8333M5.83329 22.75H22.1666M5.83329 22.75C5.05974 22.75 4.31788 22.4427 3.7709 21.8957C3.22392 21.3487 2.91663 20.6069 2.91663 19.8333M4.08329 19.8333H2.91663" stroke="#37463B" stroke-width="0.5"/>
<path d="M5 5.83333L14 16.3333L23 5.83333" stroke="#37463B" stroke-width="1.5" stroke-linecap="round" stroke-linejoin="round"/>
</svg>
