<svg width="28" height="28" viewBox="0 0 28 28" fill="none" xmlns="http://www.w3.org/2000/svg">
<path d="M22.25 9.875H18.75V7.25C18.75 5.85761 18.1969 4.52226 17.2123 3.53769C16.2277 2.55312 14.8924 2 13.5 2C12.1076 2 10.7723 2.55312 9.78769 3.53769C8.80312 4.52226 8.25 5.85761 8.25 7.25V9.875H4.75C4.28587 9.875 3.84075 10.0594 3.51256 10.3876C3.18437 10.7158 3 11.1609 3 11.625V23.875C3 24.3391 3.18437 24.7842 3.51256 25.1124C3.84075 25.4406 4.28587 25.625 4.75 25.625H22.25C22.7141 25.625 23.1592 25.4406 23.4874 25.1124C23.8156 24.7842 24 24.3391 24 23.875V11.625C24 11.1609 23.8156 10.7158 23.4874 10.3876C23.1592 10.0594 22.7141 9.875 22.25 9.875ZM10 7.25C10 6.32174 10.3687 5.4315 11.0251 4.77513C11.6815 4.11875 12.5717 3.75 13.5 3.75C14.4283 3.75 15.3185 4.11875 15.9749 4.77513C16.6313 5.4315 17 6.32174 17 7.25V9.875H10V7.25ZM22.25 23.875H4.75V11.625H22.25V23.875ZM14.8125 17.75C14.8125 18.0096 14.7355 18.2633 14.5913 18.4792C14.4471 18.695 14.2421 18.8633 14.0023 18.9626C13.7624 19.0619 13.4985 19.0879 13.2439 19.0373C12.9893 18.9866 12.7555 18.8616 12.5719 18.6781C12.3884 18.4945 12.2634 18.2607 12.2127 18.0061C12.1621 17.7515 12.1881 17.4876 12.2874 17.2477C12.3867 17.0079 12.555 16.8029 12.7708 16.6587C12.9867 16.5145 13.2404 16.4375 13.5 16.4375C13.8481 16.4375 14.1819 16.5758 14.4281 16.8219C14.6742 17.0681 14.8125 17.4019 14.8125 17.75Z" fill="#37463B"/>
</svg>
