<svg width="24" height="24" viewBox="0 0 24 24" fill="none" xmlns="http://www.w3.org/2000/svg">
<path d="M13.125 12C13.125 12.2225 13.059 12.44 12.9354 12.625C12.8118 12.8101 12.6361 12.9542 12.4305 13.0394C12.225 13.1245 11.9988 13.1468 11.7805 13.1034C11.5623 13.06 11.3618 12.9529 11.2045 12.7955C11.0472 12.6382 10.94 12.4377 10.8966 12.2195C10.8532 12.0013 10.8755 11.7751 10.9606 11.5695C11.0458 11.3639 11.19 11.1882 11.375 11.0646C11.56 10.941 11.7775 10.875 12 10.875C12.2984 10.875 12.5845 10.9936 12.7955 11.2045C13.0065 11.4155 13.125 11.7017 13.125 12ZM7.875 10.875C7.6525 10.875 7.43499 10.941 7.24998 11.0646C7.06498 11.1882 6.92078 11.3639 6.83564 11.5695C6.75049 11.7751 6.72821 12.0013 6.77162 12.2195C6.81502 12.4377 6.92217 12.6382 7.0795 12.7955C7.23684 12.9529 7.43729 13.06 7.65552 13.1034C7.87375 13.1468 8.09995 13.1245 8.30552 13.0394C8.51109 12.9542 8.68679 12.8101 8.8104 12.625C8.93402 12.44 9 12.2225 9 12C9 11.7017 8.88147 11.4155 8.6705 11.2045C8.45952 10.9936 8.17337 10.875 7.875 10.875ZM16.125 10.875C15.9025 10.875 15.685 10.941 15.5 11.0646C15.315 11.1882 15.1708 11.3639 15.0856 11.5695C15.0005 11.7751 14.9782 12.0013 15.0216 12.2195C15.065 12.4377 15.1722 12.6382 15.3295 12.7955C15.4868 12.9529 15.6873 13.06 15.9055 13.1034C16.1238 13.1468 16.35 13.1245 16.5555 13.0394C16.7611 12.9542 16.9368 12.8101 17.0604 12.625C17.184 12.44 17.25 12.2225 17.25 12C17.25 11.7017 17.1315 11.4155 16.9205 11.2045C16.7095 10.9936 16.4234 10.875 16.125 10.875ZM21.75 12C21.7504 13.6833 21.3149 15.3381 20.486 16.8032C19.6572 18.2683 18.4631 19.4938 17.02 20.3605C15.577 21.2272 13.9341 21.7055 12.2514 21.7489C10.5686 21.7923 8.9033 21.3993 7.4175 20.6082L4.22531 21.6722C3.96102 21.7604 3.6774 21.7731 3.40624 21.7092C3.13509 21.6452 2.88711 21.5069 2.69011 21.3099C2.49311 21.1129 2.35486 20.8649 2.29087 20.5938C2.22688 20.3226 2.23967 20.039 2.32781 19.7747L3.39187 16.5825C2.69639 15.2749 2.30793 13.8261 2.256 12.3459C2.20406 10.8658 2.49001 9.39328 3.09213 8.04015C3.69425 6.68703 4.59672 5.48885 5.73105 4.53658C6.86537 3.58431 8.20173 2.90298 9.63869 2.54429C11.0756 2.1856 12.5754 2.15899 14.0242 2.46647C15.473 2.77395 16.8327 3.40745 18.0001 4.31888C19.1675 5.2303 20.1119 6.3957 20.7616 7.72662C21.4114 9.05753 21.7494 10.519 21.75 12ZM20.25 12C20.2496 10.7345 19.9582 9.48606 19.3981 8.35123C18.838 7.2164 18.0244 6.22562 17.0201 5.45556C16.0159 4.6855 14.8479 4.15678 13.6067 3.91033C12.3654 3.66388 11.084 3.70628 9.86178 4.03428C8.63951 4.36227 7.50909 4.96705 6.55796 5.80183C5.60682 6.63662 4.86049 7.67902 4.37668 8.8484C3.89288 10.0178 3.68458 11.2828 3.7679 12.5455C3.85122 13.8083 4.22393 15.035 4.85719 16.1307C4.91034 16.2226 4.94334 16.3249 4.954 16.4306C4.96467 16.5363 4.95276 16.643 4.91906 16.7438L3.75 20.25L7.25625 19.081C7.33262 19.0549 7.41275 19.0416 7.49344 19.0416C7.62516 19.0418 7.7545 19.0767 7.86844 19.1428C9.12263 19.8685 10.5458 20.251 11.9948 20.2519C13.4438 20.2528 14.8674 19.8721 16.1225 19.1481C17.3776 18.424 18.4199 17.3821 19.1445 16.1273C19.869 14.8725 20.2503 13.449 20.25 12Z" fill="#151E17"/>
</svg>
