<svg width="24" height="24" viewBox="0 0 24 24" fill="none" xmlns="http://www.w3.org/2000/svg">
<path d="M15.875 11C15.875 11.8158 15.6331 12.6134 15.1798 13.2917C14.7266 13.9701 14.0823 14.4988 13.3286 14.811C12.5748 15.1232 11.7454 15.2049 10.9453 15.0457C10.1451 14.8866 9.41008 14.4937 8.83319 13.9168C8.2563 13.3399 7.86343 12.6049 7.70427 11.8047C7.5451 11.0046 7.62679 10.1752 7.939 9.42143C8.25121 8.66769 8.77992 8.02345 9.45828 7.57019C10.1366 7.11693 10.9342 6.875 11.75 6.875C12.8436 6.87624 13.8921 7.31124 14.6654 8.08455C15.4388 8.85787 15.8738 9.90636 15.875 11ZM21.5 11.75C21.5 13.6784 20.9282 15.5634 19.8568 17.1668C18.7855 18.7702 17.2627 20.0199 15.4812 20.7578C13.6996 21.4958 11.7392 21.6889 9.84787 21.3127C7.95656 20.9365 6.21928 20.0079 4.85571 18.6443C3.49215 17.2807 2.56355 15.5434 2.18735 13.6521C1.81114 11.7608 2.00422 9.80042 2.74218 8.01884C3.48013 6.23726 4.72982 4.71451 6.33319 3.64317C7.93657 2.57183 9.82164 2 11.75 2C14.335 2.00273 16.8134 3.03084 18.6413 4.85872C20.4692 6.68661 21.4973 9.16498 21.5 11.75ZM20 11.75C19.9988 10.6396 19.7737 9.54077 19.3381 8.51934C18.9025 7.4979 18.2654 6.57481 17.4648 5.80525C16.6643 5.0357 15.7168 4.43549 14.679 4.04053C13.6411 3.64556 12.5343 3.46395 11.4247 3.50656C7.00907 3.67719 3.48782 7.355 3.5 11.7734C3.50424 13.7849 4.24609 15.7249 5.585 17.2259C6.13028 16.4351 6.82292 15.7568 7.625 15.2281C7.69339 15.183 7.77469 15.1614 7.85646 15.1669C7.93824 15.1723 8.01599 15.2043 8.07782 15.2581C9.09705 16.1397 10.3996 16.6249 11.7472 16.6249C13.0948 16.6249 14.3973 16.1397 15.4166 15.2581C15.4784 15.2043 15.5561 15.1723 15.6379 15.1669C15.7197 15.1614 15.801 15.183 15.8694 15.2281C16.6725 15.7565 17.3661 16.4348 17.9122 17.2259C19.2577 15.7194 20.001 13.7699 20 11.75Z" fill="#00864F"/>
</svg>
