<svg width="24" height="24" viewBox="0 0 24 24" fill="none" xmlns="http://www.w3.org/2000/svg">
<path d="M19.5 5.22169H16.9012L15.6234 3.31578C15.5549 3.21372 15.4622 3.13003 15.3535 3.07213C15.2447 3.01423 15.1233 2.9839 15 2.98382H8.99995C8.8766 2.9839 8.75517 3.01423 8.64642 3.07213C8.53768 3.13003 8.44497 3.21372 8.37651 3.31578L7.09776 5.22169H4.49994C3.9032 5.22169 3.33091 5.45747 2.90895 5.87715C2.48699 6.29683 2.24994 6.86604 2.24994 7.45956V17.9029C2.24994 18.4965 2.48699 19.0657 2.90895 19.4853C3.33091 19.905 3.9032 20.1408 4.49994 20.1408H19.5C20.0967 20.1408 20.669 19.905 21.0909 19.4853C21.5129 19.0657 21.75 18.4965 21.75 17.9029V7.45956C21.75 6.86604 21.5129 6.29683 21.0909 5.87715C20.669 5.45747 20.0967 5.22169 19.5 5.22169ZM15.375 12.3083C15.375 12.9722 15.177 13.6212 14.8062 14.1732C14.4353 14.7252 13.9082 15.1555 13.2915 15.4095C12.6748 15.6636 11.9962 15.7301 11.3415 15.6006C10.6868 15.471 10.0855 15.1513 9.61346 14.6819C9.14146 14.2124 8.82002 13.6143 8.68979 12.9631C8.55957 12.312 8.62641 11.6371 8.88185 11.0237C9.1373 10.4103 9.56988 9.88604 10.1249 9.51719C10.6799 9.14834 11.3324 8.95147 11.9999 8.95147C12.8951 8.95147 13.7535 9.30513 14.3864 9.93465C15.0194 10.5642 15.375 11.418 15.375 12.3083Z" fill="white"/>
</svg>
