<svg width="26" height="25" viewBox="0 0 26 25" fill="none" xmlns="http://www.w3.org/2000/svg">
<path d="M24 6H19C19 4.4087 18.3679 2.88258 17.2426 1.75736C16.1174 0.632141 14.5913 0 13 0C11.4087 0 9.88258 0.632141 8.75736 1.75736C7.63214 2.88258 7 4.4087 7 6H2C1.46957 6 0.960859 6.21071 0.585786 6.58579C0.210714 6.96086 0 7.46957 0 8V23C0 23.5304 0.210714 24.0391 0.585786 24.4142C0.960859 24.7893 1.46957 25 2 25H24C24.5304 25 25.0391 24.7893 25.4142 24.4142C25.7893 24.0391 26 23.5304 26 23V8C26 7.46957 25.7893 6.96086 25.4142 6.58579C25.0391 6.21071 24.5304 6 24 6ZM13 2C14.0609 2 15.0783 2.42143 15.8284 3.17157C16.5786 3.92172 17 4.93913 17 6H9C9 4.93913 9.42143 3.92172 10.1716 3.17157C10.9217 2.42143 11.9391 2 13 2ZM24 23H2V8H7V10C7 10.2652 7.10536 10.5196 7.29289 10.7071C7.48043 10.8946 7.73478 11 8 11C8.26522 11 8.51957 10.8946 8.70711 10.7071C8.89464 10.5196 9 10.2652 9 10V8H17V10C17 10.2652 17.1054 10.5196 17.2929 10.7071C17.4804 10.8946 17.7348 11 18 11C18.2652 11 18.5196 10.8946 18.7071 10.7071C18.8946 10.5196 19 10.2652 19 10V8H24V23Z" fill="#004E2C"/>
</svg>
