<svg width="24" height="24" viewBox="0 0 24 24" fill="none" xmlns="http://www.w3.org/2000/svg">
<path d="M6.5 10C6.5 9.80109 6.57902 9.61032 6.71967 9.46967C6.86032 9.32902 7.05109 9.25 7.25 9.25H16.25C16.4489 9.25 16.6397 9.32902 16.7803 9.46967C16.921 9.61032 17 9.80109 17 10C17 10.1989 16.921 10.3897 16.7803 10.5303C16.6397 10.671 16.4489 10.75 16.25 10.75H7.25C7.05109 10.75 6.86032 10.671 6.71967 10.5303C6.57902 10.3897 6.5 10.1989 6.5 10ZM7.25 13.75H16.25C16.4489 13.75 16.6397 13.671 16.7803 13.5303C16.921 13.3897 17 13.1989 17 13C17 12.8011 16.921 12.6103 16.7803 12.4697C16.6397 12.329 16.4489 12.25 16.25 12.25H7.25C7.05109 12.25 6.86032 12.329 6.71967 12.4697C6.57902 12.6103 6.5 12.8011 6.5 13C6.5 13.1989 6.57902 13.3897 6.71967 13.5303C6.86032 13.671 7.05109 13.75 7.25 13.75ZM21.5 5.5V19.75C21.4999 19.8778 21.4672 20.0035 21.4049 20.1151C21.3426 20.2268 21.2528 20.3206 21.144 20.3878C21.0353 20.4549 20.9111 20.4932 20.7834 20.4989C20.6557 20.5046 20.5287 20.4775 20.4144 20.4203L17.75 19.0881L15.0856 20.4203C14.9814 20.4725 14.8665 20.4996 14.75 20.4996C14.6335 20.4996 14.5186 20.4725 14.4144 20.4203L11.75 19.0881L9.08563 20.4203C8.98143 20.4725 8.86652 20.4996 8.75 20.4996C8.63348 20.4996 8.51857 20.4725 8.41437 20.4203L5.75 19.0881L3.08563 20.4203C2.97131 20.4775 2.84427 20.5046 2.71657 20.4989C2.58887 20.4932 2.46474 20.4549 2.35597 20.3878C2.24721 20.3206 2.15741 20.2268 2.09511 20.1151C2.03281 20.0035 2.00007 19.8778 2 19.75V5.5C2 5.10218 2.15804 4.72064 2.43934 4.43934C2.72064 4.15804 3.10218 4 3.5 4H20C20.3978 4 20.7794 4.15804 21.0607 4.43934C21.342 4.72064 21.5 5.10218 21.5 5.5ZM20 5.5H3.5V18.5369L5.41437 17.5787C5.51857 17.5266 5.63349 17.4995 5.75 17.4995C5.86651 17.4995 5.98143 17.5266 6.08563 17.5787L8.75 18.9119L11.4144 17.5787C11.5186 17.5266 11.6335 17.4995 11.75 17.4995C11.8665 17.4995 11.9814 17.5266 12.0856 17.5787L14.75 18.9119L17.4144 17.5787C17.5186 17.5266 17.6335 17.4995 17.75 17.4995C17.8665 17.4995 17.9814 17.5266 18.0856 17.5787L20 18.5369V5.5Z" fill="#151E17"/>
</svg>
