<svg width="24" height="24" viewBox="0 0 24 24" fill="none" xmlns="http://www.w3.org/2000/svg">
<path d="M11.7521 2C10.0688 1.99963 8.41408 2.43508 6.94899 3.26396C5.4839 4.09285 4.25836 5.28692 3.39166 6.72997C2.52497 8.17301 2.04664 9.81587 2.00324 11.4986C1.95984 13.1814 2.35285 14.8467 3.144 16.3325L2.07994 19.5247C1.9918 19.789 1.97901 20.0726 2.043 20.3438C2.10699 20.6149 2.24524 20.8629 2.44224 21.0599C2.63924 21.2569 2.88722 21.3951 3.15837 21.4591C3.42953 21.5231 3.71315 21.5103 3.97744 21.4222L7.16963 20.3581C8.47722 21.0536 9.92608 21.4421 11.4062 21.494C12.8864 21.5459 14.3589 21.26 15.712 20.6579C17.0651 20.0557 18.2633 19.1533 19.2156 18.019C20.1678 16.8846 20.8492 15.5483 21.2079 14.1113C21.5666 12.6744 21.5932 11.1746 21.2857 9.72578C20.9782 8.27701 20.3447 6.91732 19.4333 5.74992C18.5219 4.58253 17.3565 3.63811 16.0255 2.98836C14.6946 2.33861 13.2332 2.00061 11.7521 2ZM7.62713 12.875C7.40462 12.875 7.18712 12.809 7.00211 12.6854C6.81711 12.5618 6.67291 12.3861 6.58776 12.1805C6.50261 11.975 6.48034 11.7488 6.52374 11.5305C6.56715 11.3123 6.6743 11.1118 6.83163 10.9545C6.98897 10.7972 7.18942 10.69 7.40765 10.6466C7.62588 10.6032 7.85208 10.6255 8.05765 10.7106C8.26321 10.7958 8.43891 10.94 8.56253 11.125C8.68615 11.31 8.75213 11.5275 8.75213 11.75C8.75213 12.0484 8.6336 12.3345 8.42262 12.5455C8.21164 12.7565 7.9255 12.875 7.62713 12.875ZM11.7521 12.875C11.5296 12.875 11.3121 12.809 11.1271 12.6854C10.9421 12.5618 10.7979 12.3861 10.7128 12.1805C10.6276 11.975 10.6053 11.7488 10.6487 11.5305C10.6922 11.3123 10.7993 11.1118 10.9566 10.9545C11.114 10.7972 11.3144 10.69 11.5327 10.6466C11.7509 10.6032 11.9771 10.6255 12.1826 10.7106C12.3882 10.7958 12.5639 10.94 12.6875 11.125C12.8111 11.31 12.8771 11.5275 12.8771 11.75C12.8771 12.0484 12.7586 12.3345 12.5476 12.5455C12.3366 12.7565 12.0505 12.875 11.7521 12.875ZM15.8771 12.875C15.6546 12.875 15.4371 12.809 15.2521 12.6854C15.0671 12.5618 14.9229 12.3861 14.8378 12.1805C14.7526 11.975 14.7303 11.7488 14.7737 11.5305C14.8172 11.3123 14.9243 11.1118 15.0816 10.9545C15.239 10.7972 15.4394 10.69 15.6577 10.6466C15.8759 10.6032 16.1021 10.6255 16.3076 10.7106C16.5132 10.7958 16.6889 10.94 16.8125 11.125C16.9361 11.31 17.0021 11.5275 17.0021 11.75C17.0021 12.0484 16.8836 12.3345 16.6726 12.5455C16.4616 12.7565 16.1755 12.875 15.8771 12.875Z" fill="#00864F"/>
</svg>
