<svg width="24" height="24" viewBox="0 0 24 24" fill="none" xmlns="http://www.w3.org/2000/svg">
<path d="M21 10.5812V19.2484C21 19.6462 20.842 20.0278 20.5607 20.3091C20.2794 20.5904 19.8978 20.7484 19.5 20.7484H15.75C15.3522 20.7484 14.9706 20.5904 14.6893 20.3091C14.408 20.0278 14.25 19.6462 14.25 19.2484V15.4984C14.25 15.2995 14.171 15.1087 14.0303 14.9681C13.8897 14.8274 13.6989 14.7484 13.5 14.7484H10.5C10.3011 14.7484 10.1103 14.8274 9.96967 14.9681C9.82902 15.1087 9.75 15.2995 9.75 15.4984V19.2484C9.75 19.6462 9.59196 20.0278 9.31066 20.3091C9.02936 20.5904 8.64782 20.7484 8.25 20.7484H4.5C4.10218 20.7484 3.72064 20.5904 3.43934 20.3091C3.15804 20.0278 3 19.6462 3 19.2484V10.5812C2.99997 10.3736 3.04303 10.1683 3.12646 9.97817C3.20989 9.78807 3.33187 9.61736 3.48469 9.47684L10.9847 2.40059L10.995 2.39028C11.2711 2.13916 11.631 2 12.0042 2C12.3775 2 12.7373 2.13916 13.0134 2.39028C13.0166 2.39395 13.0201 2.39739 13.0238 2.40059L20.5238 9.47684C20.675 9.6181 20.7954 9.78915 20.8774 9.97921C20.9594 10.1693 21.0011 10.3742 21 10.5812Z" fill="#00864F"/>
</svg>
